<svg viewBox="0 0 48 48" fill="none" xmlns="http://www.w3.org/2000/svg">
  <path d="M24 8L38 16v14L24 38 10 30V16L24 8z" fill="#0F2419" stroke="#4CAF50" stroke-width="1" opacity="0.9"/>
  <circle cx="24" cy="23" r="10" stroke="#4CAF50" stroke-width="1.5" fill="none" opacity="0.5"/>
  <line x1="14" y1="14" x2="20" y2="19" stroke="#4CAF50" stroke-width="1.5" stroke-linecap="round"/>
  <line x1="34" y1="14" x2="28" y2="19" stroke="#4CAF50" stroke-width="1.5" stroke-linecap="round"/>
  <line x1="14" y1="32" x2="20" y2="27" stroke="#4CAF50" stroke-width="1.5" stroke-linecap="round"/>
  <line x1="34" y1="32" x2="28" y2="27" stroke="#4CAF50" stroke-width="1.5" stroke-linecap="round"/>
  <circle cx="12" cy="12" r="3" fill="none" stroke="#4CAF50" stroke-width="1" opacity="0.6"/>
  <circle cx="36" cy="12" r="3" fill="none" stroke="#4CAF50" stroke-width="1" opacity="0.6"/>
  <circle cx="12" cy="34" r="3" fill="none" stroke="#4CAF50" stroke-width="1" opacity="0.6"/>
  <circle cx="36" cy="34" r="3" fill="none" stroke="#4CAF50" stroke-width="1" opacity="0.6"/>
  <circle cx="24" cy="23" r="3.5" fill="#4CAF50" opacity="0.9"/>
  <circle cx="24" cy="23" r="1.5" fill="#0F2419"/>
  <path d="M18 36l6 6 6-6" stroke="#4ade80" stroke-width="1.5" stroke-linecap="round" fill="none" opacity="0.7"/>
  <path d="M20 39l4 3 4-3" stroke="#4ade80" stroke-width="1" stroke-linecap="round" fill="none" opacity="0.4"/>
</svg>
